<svg xmlns="http://www.w3.org/2000/svg" xmlns:xlink="http://www.w3.org/1999/xlink" viewBox="1128 845.982 52 68.928"><defs><style>.a{fill:#05a3bc;}.b{fill:#fe0606;stroke:#95989a;}.c{font-size:12px;font-family:MicrosoftNewTaiLue-Bold, Microsoft New Tai Lue;font-weight:700;letter-spacing:0.002em;}.d{fill:#fff;stroke:#000;}.e{filter:url(#e);}.f{filter:url(#c);}.g{filter:url(#a);}</style><filter id="a" x="1128" y="877.7" width="52" height="34" filterUnits="userSpaceOnUse"><feOffset dy="3" input="SourceAlpha"/><feGaussianBlur stdDeviation="3" result="b"/><feFlood flood-color="#060404" flood-opacity="0.741"/><feComposite operator="in" in2="b"/><feComposite in="SourceGraphic"/></filter><filter id="c" x="1132.636" y="845.982" width="42.598" height="33.914" filterUnits="userSpaceOnUse"><feOffset dy="3" input="SourceAlpha"/><feGaussianBlur stdDeviation="3" result="d"/><feFlood flood-opacity="0.769"/><feComposite operator="in" in2="d"/><feComposite in="SourceGraphic"/></filter><filter id="e" x="1141.5" y="860.885" width="24.4" height="28.715" filterUnits="userSpaceOnUse"><feOffset dy="3" input="SourceAlpha"/><feGaussianBlur stdDeviation="3" result="f"/><feFlood flood-opacity="0.769"/><feComposite operator="in" in2="f"/><feComposite in="SourceGraphic"/></filter></defs><g transform="translate(989 703.7)"><g transform="translate(5 4)"><path class="a" d="M24.4,0C37.876,0,48.8,10.367,48.8,23.155S37.876,46.31,24.4,46.31,0,35.943,0,23.155,10.924,0,24.4,0Z" transform="translate(136 160.9)"/><path class="b" d="M19,.5a18.255,18.255,0,0,1,18.5,18A18.255,18.255,0,0,1,19,36.5,18.255,18.255,0,0,1,.5,18.5,18.255,18.255,0,0,1,19,.5Z" transform="translate(141 165.9)"/><g class="g" transform="matrix(1, 0, 0, 1, -994, -707.7)"><text class="c" transform="translate(1154 894.7)"><tspan x="-16.474" y="0">JUMP</tspan></text></g></g><g transform="translate(-926 -966)"><g transform="translate(1 1)"><g class="f" transform="matrix(1, 0, 0, 1, -64, 261.3)"><path class="d" d="M194.372,1756h-9.8l11-14.6,11.561,14.6H194.372Z" transform="translate(958.07 -888.6)"/></g><g class="e" transform="matrix(1, 0, 0, 1, -64, 261.3)"><path class="d" d="M1087,1128.1v10.2h5.1l.3-10.2" transform="translate(64 -261.2)"/></g></g></g></g></svg>