<svg xmlns="http://www.w3.org/2000/svg" xmlns:xlink="http://www.w3.org/1999/xlink" viewBox="756.82 1712.5 69.01 62"><defs><style>.a{fill:#05a3bc;}.a,.b,.c{stroke:#95989a;}.b{fill:#fe0606;}.d{font-size:12px;font-family:MicrosoftNewTaiLue-Bold, Microsoft New Tai Lue;font-weight:700;}.e{filter:url(#a);}</style><filter id="a" x="756.82" y="1720.716" width="55.91" height="53.784" filterUnits="userSpaceOnUse"><feOffset dy="3" input="SourceAlpha"/><feGaussianBlur stdDeviation="3" result="b"/><feFlood flood-opacity="0.769"/><feComposite operator="in" in2="b"/><feComposite in="SourceGraphic"/></filter></defs><g transform="translate(-125.77 -80)"><path class="a" d="M24.15.5A23.636,23.636,0,1,1,.5,24.136,23.643,23.643,0,0,1,24.15.5Z" transform="translate(903.3 1792.5)"/><path class="b" d="M15.882.5c8.5,0,15.382,7.869,15.382,17.576S24.378,35.651,15.882,35.651.5,27.783.5,18.076,7.387.5,15.882.5Z" transform="translate(910.337 1798.561)"/><g class="e" transform="matrix(1, 0, 0, 1, 125.77, 80)"><path class="c" d="M204.282,1763.055v10.3h-4.443l-1.276.139-1.686-.624a68.41,68.41,0,0,1-6.38-4.121c-1.288-.985-2.475-1.865-2.475-1.865a21.421,21.421,0,0,1-1.285-1.771,18.213,18.213,0,0,1-3.076-6.546,7.964,7.964,0,0,1,0-4.727h9.8l-10.71-12.242L170.9,1753.842h9.684s-1.025,1.424,0,4.727a30.468,30.468,0,0,0,4.1,8.485l.926,1.362.018.024.04.054.044.059.251.336.005.007.045.061a25.185,25.185,0,0,1,2.543,1.855,67.917,67.917,0,0,0,6.152,4.121l3.988,1.212h8.431v-13.091Z" transform="translate(596.1 -14.15)"/></g><text class="d" transform="translate(914.7 1819.7)"><tspan x="0" y="0">QCB</tspan></text></g></svg>