<svg xmlns="http://www.w3.org/2000/svg" xmlns:xlink="http://www.w3.org/1999/xlink" viewBox="705.5 1678.5 66.68 62"><defs><style>.a{fill:#05a3bc;}.a,.b,.d{stroke:#95989a;}.b{fill:#fe0606;}.c{font-size:12px;font-family:MicrosoftNewTaiLue-Bold, Microsoft New Tai Lue;font-weight:700;}.e{filter:url(#a);}</style><filter id="a" x="716.266" y="1686.716" width="55.914" height="53.784" filterUnits="userSpaceOnUse"><feOffset dy="3" input="SourceAlpha"/><feGaussianBlur stdDeviation="3" result="b"/><feFlood flood-opacity="0.769"/><feComposite operator="in" in2="b"/><feComposite in="SourceGraphic"/></filter></defs><g transform="translate(7 -37)"><g transform="translate(605.7 63.5)"><g transform="translate(93.3 1652.5)"><path class="a" d="M22.719.5C34.99.5,44.938,11.082,44.938,24.136S34.99,47.773,22.719,47.773.5,37.19.5,24.136,10.448.5,22.719.5Z" transform="translate(-0.5 -0.5)"/><path class="b" d="M15.882.5c8.5,0,15.382,7.869,15.382,17.576S24.378,35.651,15.882,35.651.5,27.783.5,18.076,7.387.5,15.882.5Z" transform="translate(6.337 5.561)"/></g><text class="c" transform="translate(104 1679.2)"><tspan x="0" y="0">QCF</tspan></text></g><g class="e" transform="matrix(1, 0, 0, 1, -7, 37)"><path class="d" d="M173.749,1763.055v10.3h4.444l1.277.139,1.686-.624a68.42,68.42,0,0,0,6.381-4.121c1.288-.985,2.475-1.865,2.475-1.865a21.423,21.423,0,0,0,1.285-1.771,18.212,18.212,0,0,0,3.077-6.546,7.963,7.963,0,0,0,0-4.727h-9.8l10.711-12.242,11.85,12.242h-9.685s1.025,1.424,0,4.727a30.466,30.466,0,0,1-4.1,8.485l-.926,1.362-.018.024-.04.054-.044.059-.251.336-.005.007-.045.061a25.188,25.188,0,0,0-2.543,1.855,67.925,67.925,0,0,1-6.153,4.121l-3.988,1.212H170.9v-13.091Z" transform="translate(554.87 -48.15)"/></g></g></svg>